<svg xmlns="http://www.w3.org/2000/svg" viewBox="0 0 640 480"><path d="M86 359.5c-6.3 0-11.5-5.2-11.5-11.5V49c0-6.3 5.2-11.5 11.5-11.5h142c6.3 0 11.5 5.2 11.5 11.5v299c0 6.3-5.2 11.5-11.5 11.5H86z" fill="#fff"/><path d="M228,38c6.1,0,11,4.9,11,11v299c0,6.1-4.9,11-11,11H86c-6.1,0-11-4.9-11-11V49c0-6.1,4.9-11,11-11H228 M228,37H86 c-6.6,0-12,5.4-12,12v299c0,6.6,5.4,12,12,12h142c6.6,0,12-5.4,12-12V49C240,42.4,234.6,37,228,37L228,37z"/><path d="M76.5 58.5h161v254h-161z" fill="#ccc"/><path d="M237 59v253H77V59h160m1-1H76v255h162V58z"/><circle cx="157" cy="45" r="3.5" fill="#666"/><path d="M157 42c1.7 0 3 1.3 3 3s-1.3 3-3 3-3-1.3-3-3 1.3-3 3-3m0-1c-2.2 0-4 1.8-4 4s1.8 4 4 4 4-1.8 4-4-1.8-4-4-4h0z"/><circle cx="157" cy="334" r="13.5" fill="#ccc"/><path d="M157 321c7.2 0 13 5.8 13 13s-5.8 13-13 13-13-5.8-13-13 5.8-13 13-13m0-1c-7.7 0-14 6.3-14 14s6.3 14 14 14 14-6.3 14-14-6.3-14-14-14h0z"/><circle cx="157" cy="334" r="10.5" fill="#fff"/><path d="M157 324c5.5 0 10 4.5 10 10s-4.5 10-10 10-10-4.5-10-10 4.5-10 10-10m0-1a11 11 0 1 0 0 22 11 11 0 1 0 0-22h0zM74 138h-1v14h1v-14zm0 21h-1v14h1v-14z"/><path d="M147 54.5a.47.47 0 0 1-.5-.5.47.47 0 0 1 .5-.5h20a.47.47 0 0 1 .5.5.47.47 0 0 1-.5.5h-20z" fill="#666"/><path d="M167 53h-20c-.6 0-1 .5-1 1s.4 1 1 1h20c.6 0 1-.5 1-1s-.4-1-1-1h0z"/><path d="M272.1 414.9c-3.1 0-5.9-1.3-8.1-3.5s-3.3-5.1-3.3-8.2l1.5-142c.1-6.3 5.2-11.4 11.5-11.4l299.1 3.1c6.3.1 11.4 5.3 11.4 11.6l-1.5 142c-.1 6.3-5.2 11.4-11.5 11.4l-299.1-3z" fill="#fff"/><path d="M273.7 250.4h.1l299 3.1a10.67 10.67 0 0 1 7.7 3.3c2.1 2.1 3.2 4.9 3.2 7.8l-1.5 142c-.1 6-5 10.9-11 10.9h-.1l-299-3.1a10.67 10.67 0 0 1-7.7-3.3c-2.1-2.1-3.2-4.9-3.2-7.8l1.5-142c.1-6 5-10.9 11-10.9m0-1c-6.5 0-11.9 5.3-12 11.9l-1.5 142c-.1 6.6 5.3 12.1 11.9 12.1l299.1 3.1c6.5 0 11.9-5.3 12-11.9l1.5-142c.1-6.6-5.3-12.1-11.9-12.1l-299.1-3.1z"/><path d="M307.616 413.316l1.68-160.984 253.975 2.65-1.68 160.984z" fill="#ccc"/><path d="M309.8 252.8l253 2.6-1.7 160-253-2.6 1.7-160m-1-1l-1.7 162 255 2.7 1.7-162-255-2.7z"/><path d="M575.9 339.1c-1.9 0-3.5-1.6-3.5-3.5s1.6-3.5 3.5-3.5c2 0 3.5 1.6 3.5 3.5.1 1.9-1.5 3.5-3.5 3.5h0z" fill="#666"/><path d="M576 331.6v1c.8 0 1.6.3 2.1.9.6.6.9 1.3.9 2.1a3.08 3.08 0 0 1-3 3c-.8 0-1.6-.3-2.1-.9-.6-.6-.9-1.3-.9-2.1a3.08 3.08 0 0 1 3-3v-1m0 0c-2.2 0-4 1.8-4 4s1.7 4 4 4c2.2 0 4-1.8 4-4s-1.8-4-4-4h0z"/><path d="M286.9 346.1c-7.4-.1-13.4-6.2-13.4-13.6.1-7.4 6.1-13.4 13.5-13.4h.1c7.4.1 13.4 6.2 13.4 13.6-.1 7.4-6.1 13.4-13.5 13.4h-.1z" fill="#ccc"/><path d="M287 319.6h.1c3.5 0 6.7 1.4 9.2 3.9a13.27 13.27 0 0 1 3.7 9.2c-.1 7.1-5.9 12.9-13 12.9h-.1c-7.2-.1-12.9-6-12.9-13.1.1-7.1 5.9-12.9 13-12.9m0-1c-7.7 0-13.9 6.2-14 13.9s6.1 14.1 13.9 14.1h.1c7.7 0 13.9-6.2 14-13.9s-6.1-14.1-13.9-14.1h-.1z"/><path d="M286.9 343.1c-2.8 0-5.4-1.1-7.4-3.2s-3-4.7-3-7.5c.1-5.7 4.8-10.4 10.5-10.4h.1c5.8.1 10.5 4.8 10.4 10.6-.1 5.7-4.8 10.4-10.5 10.4l-.1.1z" fill="#fff"/><path d="M287 322.6h.1c2.7 0 5.2 1.1 7 3 1.9 1.9 2.9 4.4 2.9 7.1-.1 5.5-4.5 9.9-10 9.9h-.1c-2.7 0-5.2-1.1-7-3-1.9-1.9-2.9-4.4-2.9-7.1.1-5.5 4.5-9.9 10-9.9m0-1c-6 0-10.9 4.8-11 10.9s4.8 11.1 10.9 11.1h.1c6 0 10.9-4.8 11-10.9s-4.8-11.1-10.9-11.1h-.1zm182.9-71.1v1l14 .1v-1l-14-.1zm-21-.2v1l14 .1v-1l-14-.1z"/><path d="M566.9 346a.47.47 0 0 1-.5-.5l.2-20a.47.47 0 0 1 .5-.5.76.76 0 0 1 .4.2c.1.1.1.2.1.4l-.2 20c0 .2-.2.4-.5.4h0z" fill="#666"/><path d="M567.1 324.5c-.5 0-1 .4-1 1l-.2 20c0 .5.4 1 1 1 .5 0 1-.4 1-1l.2-20c0-.5-.4-1-1-1h0z"/><g fill="none" stroke="#000" stroke-miterlimit="10"><path d="M273.5 110.5h79" stroke-width="8"/><path d="M352.5 110.5v48.9" stroke-width="7" stroke-linecap="round"/></g><path d="M340.6 155.9l11.9 20.6 11.9-20.6z"/></svg>